<svg width="93" height="32" viewBox="0 0 93 32" fill="none" xmlns="http://www.w3.org/2000/svg">
<g id="Union" filter="url(#filter0_d_2456_18543)">
<path fill-rule="evenodd" clip-rule="evenodd" d="M10.2578 8.9082C9.659 8.9082 9.08472 9.14608 8.6613 9.5695C8.23788 9.99292 8 10.5672 8 11.166V21.2734C8 21.7557 8.19158 22.2182 8.53259 22.5592C8.87359 22.9002 9.3361 23.0918 9.81836 23.0918H12.8945C13.1707 23.0918 13.3945 22.8679 13.3945 22.5918C13.3945 22.3157 13.1707 22.0918 12.8945 22.0918H9.81836C9.60132 22.0918 9.39316 22.0056 9.23969 21.8521C9.08622 21.6986 9 21.4905 9 21.2734C9 21.0564 9.08622 20.8482 9.23969 20.6948C9.39316 20.5413 9.60132 20.4551 9.81836 20.4551H12.8945C13.1707 20.4551 13.3945 20.2312 13.3945 19.9551C13.3945 19.6789 13.1707 19.4551 12.8945 19.4551H9.81836C9.53144 19.4551 9.25151 19.5229 9 19.6496V11.166C9 10.8324 9.13252 10.5125 9.3684 10.2766C9.60429 10.0407 9.92422 9.9082 10.2578 9.9082H18.5469V14.2422C18.5469 14.5183 18.7707 14.7422 19.0469 14.7422C19.323 14.7422 19.5469 14.5183 19.5469 14.2422V9.84766C19.5469 9.5985 19.4479 9.35954 19.2717 9.18336C19.0955 9.00718 18.8566 8.9082 18.6074 8.9082H10.2578ZM16.7834 15.1977C16.9349 15.1063 17.1086 15.0582 17.2855 15.0586C17.4625 15.059 17.636 15.1078 17.7871 15.1998C17.9383 15.2918 18.0614 15.4234 18.143 15.5804C18.1465 15.5872 18.1499 15.594 18.1531 15.6009L18.92 17.2564H20.3504C20.538 17.2514 20.7228 17.3032 20.8805 17.4052C21.0415 17.5093 21.1665 17.6605 21.2382 17.8383C21.31 18.0161 21.3251 18.2117 21.2815 18.3984C21.2391 18.5802 21.1429 18.745 21.0057 18.8714L19.7339 20.125L20.443 21.7533L20.4464 21.7612L20.4463 21.7612C20.5233 21.9466 20.5402 22.1515 20.4948 22.3471C20.4493 22.5426 20.3437 22.719 20.1928 22.8514C20.0419 22.9839 19.8533 23.0657 19.6535 23.0854C19.4548 23.105 19.255 23.0622 19.0819 22.963L17.2834 21.9528L15.4855 22.963C15.3123 23.0622 15.1125 23.105 14.9139 23.0854C14.7141 23.0657 14.5255 22.9839 14.3746 22.8514C14.2237 22.719 14.1181 22.5426 14.0726 22.3471C14.0271 22.1515 14.044 21.9466 14.121 21.7612L14.1243 21.7532L14.1244 21.7532L14.8328 20.1268L13.5625 18.8745C13.4245 18.7492 13.3273 18.5852 13.2836 18.4037C13.2386 18.2164 13.2528 18.0198 13.3242 17.8409C13.3957 17.6621 13.521 17.5098 13.6827 17.4052C13.8409 17.3028 14.0264 17.251 14.2146 17.2564H15.6448L16.4151 15.5987C16.4185 15.5913 16.4221 15.584 16.4259 15.5768C16.5082 15.4201 16.6318 15.289 16.7834 15.1977ZM17.2835 16.1028L16.4173 17.9671C16.3353 18.1435 16.1584 18.2564 15.9638 18.2564H14.3599L15.7793 19.6556C15.9266 19.8008 15.9693 20.0217 15.8867 20.2113L15.0913 22.0374L17.0384 20.9434C17.1905 20.8579 17.3762 20.8579 17.5282 20.9433L19.476 22.0374L18.68 20.2096C18.5975 20.0199 18.6402 19.799 18.7874 19.6538L20.2051 18.2564H18.6006C18.4058 18.2564 18.2287 18.1433 18.1469 17.9666L17.2835 16.1028ZM26.1185 18.992C26.9105 19.76 27.8905 20.144 29.0585 20.144C30.3145 20.144 31.3305 19.616 32.1065 18.56L31.2545 18.092C31.0225 18.444 30.7105 18.728 30.3185 18.944C29.9265 19.152 29.5065 19.256 29.0585 19.256C28.1785 19.256 27.4425 18.952 26.8505 18.344C26.2665 17.728 25.9745 16.948 25.9745 16.004C25.9745 15.06 26.2665 14.284 26.8505 13.676C27.4425 13.06 28.1785 12.752 29.0585 12.752C29.5065 12.752 29.9265 12.86 30.3185 13.076C30.7105 13.292 31.0225 13.572 31.2545 13.916L32.0945 13.448C31.3505 12.392 30.3385 11.864 29.0585 11.864C27.8905 11.864 26.9105 12.252 26.1185 13.028C25.3345 13.796 24.9425 14.788 24.9425 16.004C24.9425 17.22 25.3345 18.216 26.1185 18.992ZM35.9919 20.144C36.8559 20.144 37.5479 19.852 38.0679 19.268C38.5959 18.684 38.8599 17.96 38.8599 17.096C38.8599 16.232 38.5959 15.512 38.0679 14.936C37.5479 14.352 36.8559 14.06 35.9919 14.06C35.1279 14.06 34.4319 14.352 33.9039 14.936C33.3839 15.512 33.1239 16.232 33.1239 17.096C33.1239 17.96 33.3839 18.684 33.9039 19.268C34.4319 19.852 35.1279 20.144 35.9919 20.144ZM35.9919 19.34C35.3999 19.34 34.9279 19.124 34.5759 18.692C34.2319 18.252 34.0599 17.72 34.0599 17.096C34.0599 16.48 34.2319 15.956 34.5759 15.524C34.9279 15.084 35.3999 14.864 35.9919 14.864C36.5839 14.864 37.0519 15.08 37.3959 15.512C37.7399 15.944 37.9119 16.472 37.9119 17.096C37.9119 17.72 37.7399 18.252 37.3959 18.692C37.0519 19.124 36.5839 19.34 35.9919 19.34ZM47.4431 20H48.3431V15.812C48.3431 14.644 47.8031 14.06 46.7231 14.06C46.3231 14.06 45.9431 14.168 45.5831 14.384C45.2231 14.6 44.9551 14.852 44.7791 15.14C44.6911 14.82 44.5151 14.56 44.2511 14.36C43.9871 14.16 43.6431 14.06 43.2191 14.06C42.8351 14.06 42.4631 14.168 42.1031 14.384C41.7431 14.6 41.4911 14.82 41.3471 15.044V14.204H40.4471V20H41.3471V15.764C41.5151 15.516 41.7391 15.304 42.0191 15.128C42.3071 14.952 42.5911 14.864 42.8711 14.864C43.5831 14.864 43.9391 15.264 43.9391 16.064V20H44.8391V15.752C44.9991 15.512 45.2231 15.304 45.5111 15.128C45.7991 14.952 46.0871 14.864 46.3751 14.864C47.0871 14.864 47.4431 15.264 47.4431 16.064V20ZM57.2545 20H58.1545V15.812C58.1545 14.644 57.6145 14.06 56.5345 14.06C56.1345 14.06 55.7545 14.168 55.3945 14.384C55.0345 14.6 54.7665 14.852 54.5905 15.14C54.5025 14.82 54.3265 14.56 54.0625 14.36C53.7985 14.16 53.4545 14.06 53.0305 14.06C52.6465 14.06 52.2745 14.168 51.9145 14.384C51.5545 14.6 51.3025 14.82 51.1585 15.044V14.204H50.2585V20H51.1585V15.764C51.3265 15.516 51.5505 15.304 51.8305 15.128C52.1185 14.952 52.4025 14.864 52.6825 14.864C53.3945 14.864 53.7505 15.264 53.7505 16.064V20H54.6505V15.752C54.8105 15.512 55.0345 15.304 55.3225 15.128C55.6105 14.952 55.8985 14.864 56.1865 14.864C56.8985 14.864 57.2545 15.264 57.2545 16.064V20ZM63.9819 20H64.8819V14.204H63.9819V18.464C63.8059 18.712 63.5579 18.92 63.2379 19.088C62.9259 19.256 62.6019 19.34 62.2659 19.34C61.8419 19.34 61.5179 19.24 61.2939 19.04C61.0779 18.84 60.9699 18.5 60.9699 18.02V14.204H60.0699V18.296C60.0699 19.528 60.6859 20.144 61.9179 20.144C62.3259 20.144 62.7099 20.052 63.0699 19.868C63.4379 19.684 63.7419 19.456 63.9819 19.184V20ZM70.7113 20H71.6113V15.932C71.6113 14.684 70.9953 14.06 69.7633 14.06C69.3633 14.06 68.9753 14.16 68.5993 14.36C68.2233 14.552 67.9233 14.78 67.6993 15.044V14.204H66.7993V20H67.6993V15.764C67.8753 15.516 68.1193 15.304 68.4313 15.128C68.7513 14.952 69.0793 14.864 69.4153 14.864C69.8313 14.864 70.1513 14.968 70.3753 15.176C70.5993 15.376 70.7113 15.72 70.7113 16.208V20ZM73.5527 13.208C73.6727 13.32 73.8127 13.376 73.9727 13.376C74.1407 13.376 74.2847 13.32 74.4047 13.208C74.5247 13.088 74.5847 12.944 74.5847 12.776C74.5847 12.608 74.5247 12.464 74.4047 12.344C74.2847 12.224 74.1407 12.164 73.9727 12.164C73.8127 12.164 73.6727 12.224 73.5527 12.344C73.4327 12.464 73.3727 12.608 73.3727 12.776C73.3727 12.944 73.4327 13.088 73.5527 13.208ZM73.5287 20H74.4287V14.204H73.5287V20ZM76.848 19.796C77.064 20.028 77.384 20.144 77.808 20.144C78.264 20.144 78.624 20.02 78.888 19.772L78.624 19.1C78.48 19.26 78.276 19.34 78.012 19.34C77.82 19.34 77.672 19.272 77.568 19.136C77.472 19 77.424 18.82 77.424 18.596V14.996H78.6V14.204H77.424V12.62H76.524V14.204H75.564V14.996H76.524V18.788C76.524 19.228 76.632 19.564 76.848 19.796ZM79.8113 21.452L79.6673 22.268C79.8673 22.324 80.0873 22.352 80.3273 22.352C81.1433 22.336 81.7113 21.944 82.0313 21.176L84.9353 14.204H83.9513L82.0313 18.956L80.0993 14.204H79.1273L81.5513 20.06L81.1673 20.936C81.0713 21.168 80.9553 21.328 80.8193 21.416C80.6833 21.504 80.5113 21.548 80.3033 21.548C80.1193 21.548 79.9553 21.516 79.8113 21.452Z" fill="white"/>
</g>
<defs>
<filter id="filter0_d_2456_18543" x="0" y="0.908203" width="92.9355" height="30.1836" filterUnits="userSpaceOnUse" color-interpolation-filters="sRGB">
<feFlood flood-opacity="0" result="BackgroundImageFix"/>
<feColorMatrix in="SourceAlpha" type="matrix" values="0 0 0 0 0 0 0 0 0 0 0 0 0 0 0 0 0 0 127 0" result="hardAlpha"/>
<feOffset/>
<feGaussianBlur stdDeviation="4"/>
<feComposite in2="hardAlpha" operator="out"/>
<feColorMatrix type="matrix" values="0 0 0 0 0 0 0 0 0 0 0 0 0 0 0 0 0 0 0.16 0"/>
<feBlend mode="normal" in2="BackgroundImageFix" result="effect1_dropShadow_2456_18543"/>
<feBlend mode="normal" in="SourceGraphic" in2="effect1_dropShadow_2456_18543" result="shape"/>
</filter>
</defs>
</svg>
