<svg width="38" height="33" viewBox="0 0 38 33" fill="none" xmlns="http://www.w3.org/2000/svg">
<path d="M38 4.61712C36.602 5.24699 35.0993 5.6725 33.5224 5.86393C35.1319 4.884 36.3683 3.3323 36.9502 1.48322C35.4437 2.39078 33.7753 3.04959 31.9994 3.40466C30.5774 1.86569 28.5513 0.904297 26.3089 0.904297C22.0035 0.904297 18.5126 4.44942 18.5126 8.82222C18.5126 9.44283 18.5816 10.0472 18.7146 10.6267C12.2352 10.2966 6.49073 7.14412 2.6455 2.35353C1.97442 3.52296 1.58986 4.88304 1.58986 6.33421C1.58986 9.08139 2.96622 11.505 5.05812 12.9249C3.78018 12.8838 2.57805 12.5275 1.52697 11.9345C1.52608 11.9675 1.52608 12.0007 1.52608 12.0341C1.52608 15.8704 4.21345 19.0705 7.77994 19.7984C7.12577 19.9794 6.43702 20.0761 5.72604 20.0761C5.22368 20.0761 4.73538 20.0263 4.25924 19.9341C5.25142 23.0797 8.13049 25.369 11.5421 25.4327C8.87397 27.5566 5.51248 28.8225 1.85972 28.8225C1.23044 28.8225 0.609902 28.7848 0 28.7117C3.45022 30.9585 7.54814 32.2694 11.9508 32.2694C26.2907 32.2694 34.1326 20.204 34.1326 9.7402C34.1326 9.3969 34.125 9.05553 34.11 8.7157C35.633 7.59954 36.9547 6.2051 37.9999 4.61712H38Z" fill="#2AA9E0"/>
</svg>
