<svg width="24" height="25" viewBox="0 0 24 25" fill="none" xmlns="http://www.w3.org/2000/svg">
<path d="M12.0002 6.24775C12.0002 4.50016 16.4734 3.0648 21.787 2.90052C21.9185 2.89639 22.0496 2.9182 22.1723 2.96463C22.2951 3.01107 22.4071 3.08118 22.5016 3.17081C22.5961 3.26043 22.6713 3.36774 22.7226 3.48636C22.7739 3.60497 22.8003 3.73246 22.8002 3.86126V17.792C22.8003 18.0419 22.7009 18.282 22.5231 18.4614C22.3453 18.6408 22.1031 18.7453 21.8478 18.7528C16.5077 18.9065 12.0002 20.3457 12.0002 22.1M12.0002 6.24775C12.0002 4.50016 7.52605 3.0648 2.21343 2.90052C2.08188 2.89639 1.95082 2.9182 1.82805 2.96463C1.70528 3.01107 1.59331 3.08118 1.49878 3.17081C1.40426 3.26043 1.32911 3.36774 1.27782 3.48636C1.22653 3.60497 1.20013 3.73246 1.2002 3.86126V17.7901C1.20008 18.04 1.29947 18.2801 1.47727 18.4595C1.65508 18.6389 1.8973 18.7434 2.15256 18.7509C7.49267 18.9065 12.0002 20.3457 12.0002 22.1M12.0002 6.24775V22.1" stroke="#5B657A" stroke-width="1.2" stroke-linecap="round" stroke-linejoin="round"/>
</svg>
